<?xml version="1.0" encoding="UTF-8" standalone="no"?>
<svg
   data-name="Layer 1"
   width="624"
   height="371"
   viewBox="0 0 623.99998 371"
   version="1.1"
   id="svg64"
   sodipodi:docname="undraw_chat_re_re1u.svg"
   inkscape:version="1.1.1 (3bf5ae0d25, 2021-09-20)"
   xmlns:inkscape="http://www.inkscape.org/namespaces/inkscape"
   xmlns:sodipodi="http://sodipodi.sourceforge.net/DTD/sodipodi-0.dtd"
   xmlns="http://www.w3.org/2000/svg"
   xmlns:svg="http://www.w3.org/2000/svg">
  <defs
     id="defs68" />
  <sodipodi:namedview
     id="namedview66"
     pagecolor="#ffffff"
     bordercolor="#666666"
     borderopacity="1.0"
     inkscape:pageshadow="2"
     inkscape:pageopacity="0.0"
     inkscape:pagecheckerboard="0"
     showgrid="false"
     inkscape:zoom="1.2340116"
     inkscape:cx="367.50059"
     inkscape:cy="84.683157"
     inkscape:window-width="1920"
     inkscape:window-height="1044"
     inkscape:window-x="0"
     inkscape:window-y="0"
     inkscape:window-maximized="1"
     inkscape:current-layer="svg64" />
  <path
     d="m 580,242 h -1 A 41.04651,41.04651 0 0 1 538,201 V 187 H 416 v -2 h 124 v 16 a 39.04723,39.04723 0 0 0 38,38.9873 V 185 h 29.00004 a 15.017,15.017 0 0 0 15,-15 V 17 a 15.017,15.017 0 0 0 -15,-15 H 225 a 15.017,15.017 0 0 0 -15,15 v 111 h -2 V 17 A 17.01917,17.01917 0 0 1 225,0 h 382.00004 a 17.01917,17.01917 0 0 1 17,17 v 153 a 17.01917,17.01917 0 0 1 -17,17 H 580 Z"
     fill="#cccccc"
     id="path2" />
  <path
     d="m 543.97998,50.51 a 12.49675,12.49675 0 0 0 -12.48,-12.01 h -231 a 12.5,12.5 0 0 0 0,25 h 231 a 12.51731,12.51731 0 0 0 12.5,-12.5 4.01126,4.01126 0 0 0 -0.02,-0.49 z"
     fill="#cccccc"
     id="path4" />
  <path
     d="m 543.97998,92.51 a 12.49675,12.49675 0 0 0 -12.48,-12.01 h -231 a 12.5,12.5 0 0 0 0,25 h 231 a 12.51731,12.51731 0 0 0 12.5,-12.5 4.01126,4.01126 0 0 0 -0.02,-0.49 z"
     fill="#cccccc"
     id="path6" />
  <path
     d="m 543.97998,134.51 a 12.49675,12.49675 0 0 0 -12.48,-12.01 h -231 a 12.491,12.491 0 0 0 -9.6001,4.5 13.06515,13.06515 0 0 0 -1.35986,2 h 110.46 a 15.01828,15.01828 0 0 1 15,15 v 3.5 h 116.5 a 12.51731,12.51731 0 0 0 12.5,-12.5 4.01126,4.01126 0 0 0 -0.02,-0.49 z"
     fill="#cccccc"
     id="path8" />
  <path
     d="M 399,129 H 17 A 17.0241,17.0241 0 0 0 0,146 v 153 a 17.0241,17.0241 0 0 0 17,17 h 27 v 55 h 1 a 41.04329,41.04329 0 0 0 41,-41 v -14 h 313 a 17.02411,17.02411 0 0 0 17,-17 V 146 a 17.02411,17.02411 0 0 0 -17,-17 z m 15,170 a 15.01828,15.01828 0 0 1 -15,15 H 84 v 16 A 39.057,39.057 0 0 1 46,368.99 V 314 H 17 A 15.01828,15.01828 0 0 1 2,299 V 146 a 15.01828,15.01828 0 0 1 15,-15 h 382 a 15.01828,15.01828 0 0 1 15,15 z"
     fill="#3f3d56"
     id="path18" />
  <path
     d="M 323.5,167.5 H 92.5 A 12.4967,12.4967 0 0 0 80.02,179.51 4.01078,4.01078 0 0 0 80,180 12.51762,12.51762 0 0 0 92.5,192.5 h 231 a 12.5,12.5 0 0 0 0,-25 z"
     fill="#2872fa"
     id="path20" />
  <path
     d="M 323.5,209.5 H 92.5 A 12.4967,12.4967 0 0 0 80.02,221.51 4.01078,4.01078 0 0 0 80,222 12.51762,12.51762 0 0 0 92.5,234.5 h 231 a 12.5,12.5 0 1 0 0,-25 z"
     fill="#2872fa"
     id="path22" />
  <path
     d="M 323.5,251.5 H 92.5 A 12.4967,12.4967 0 0 0 80.02,263.51 4.01078,4.01078 0 0 0 80,264 12.51762,12.51762 0 0 0 92.5,276.5 h 231 a 12.5,12.5 0 1 0 0,-25 z"
     fill="#2872fa"
     id="path24" />
</svg>
