<?xml version="1.0" encoding="UTF-8" standalone="no"?>
<svg
   data-name="Layer 1"
   width="390.18713"
   height="341.58301"
   viewBox="0 0 390.18715 341.58299"
   version="1.1"
   id="svg62"
   sodipodi:docname="notifications.svg"
   inkscape:version="1.1.1 (3bf5ae0d25, 2021-09-20)"
   xmlns:inkscape="http://www.inkscape.org/namespaces/inkscape"
   xmlns:sodipodi="http://sodipodi.sourceforge.net/DTD/sodipodi-0.dtd"
   xmlns="http://www.w3.org/2000/svg"
   xmlns:svg="http://www.w3.org/2000/svg">
  <defs
     id="defs66" />
  <sodipodi:namedview
     id="namedview64"
     pagecolor="#ffffff"
     bordercolor="#666666"
     borderopacity="1.0"
     inkscape:pageshadow="2"
     inkscape:pageopacity="0.0"
     inkscape:pagecheckerboard="0"
     showgrid="false"
     inkscape:zoom="1.1713141"
     inkscape:cx="49.943904"
     inkscape:cy="277.03926"
     inkscape:window-width="1920"
     inkscape:window-height="1044"
     inkscape:window-x="0"
     inkscape:window-y="0"
     inkscape:window-maximized="1"
     inkscape:current-layer="svg62" />
  <path
     d="M 7.06529,124.45525 A 7.07362,7.07362 0 0 0 0,131.52054 v 78.54193 a 7.07362,7.07362 0 0 0 7.06529,7.06528 h 376.05656 a 7.07361,7.07361 0 0 0 7.06529,-7.06528 v -78.54192 a 7.0736,7.0736 0 0 0 -7.06529,-7.06528 z"
     fill="#e6e6e6"
     id="path32" />
  <path
     d="M 9.60575,129.96465 A 4.10124,4.10124 0 0 0 5.50863,134.061 v 73.461 a 4.10135,4.10135 0 0 0 4.097,4.09635 h 370.97576 a 4.10012,4.10012 0 0 0 4.09566,-4.09635 v -73.461 a 4.10012,4.10012 0 0 0 -4.09566,-4.09635 z"
     fill="#ffffff"
     id="path34" />
  <path
     d="m 357.28907,191.47422 a 6.656,6.656 0 0 0 0.018,-13.31189 c -0.006,0 -0.012,0 -0.018,0 H 43.50919 a 6.656,6.656 0 0 0 0,13.31189 z"
     fill="#e6e6e6"
     id="path36" />
  <path
     d="m 178.52952,162.55767 a 6.65594,6.65594 0 1 0 0,-13.31187 H 43.50919 a 6.65594,6.65594 0 1 0 0,13.31187 z"
     fill="#2872fa"
     id="path38" />
  <path
     d="m 62.02863,276 a 5.00588,5.00588 0 0 0 -5,5 v 55.583 a 5.00589,5.00589 0 0 0 5,5 h 266.12989 a 5.00589,5.00589 0 0 0 5,-5 V 281 a 5.00588,5.00588 0 0 0 -5,-5 z"
     fill="#e6e6e6"
     id="path40" />
  <path
     d="m 63.82652,279.89892 a 2.90239,2.90239 0 0 0 -2.89947,2.89893 v 51.98731 a 2.90245,2.90245 0 0 0 2.89941,2.89892 h 262.5342 a 2.9016,2.9016 0 0 0 2.89844,-2.89892 v -51.98731 a 2.9016,2.9016 0 0 0 -2.89844,-2.89893 z"
     fill="#ffffff"
     id="path42" />
  <path
     d="m 309.87702,323.42837 a 4.71032,4.71032 0 0 0 0.0127,-9.42063 c -0.004,0 -0.008,0 -0.0127,0 H 87.81946 a 4.71032,4.71032 0 0 0 0,9.42063 z"
     fill="#e6e6e6"
     id="path44" />
  <path
     d="m 183.37146,302.96454 a 4.71032,4.71032 0 1 0 0,-9.42063 h -95.552 a 4.71032,4.71032 0 1 0 0,9.42063 z"
     fill="#e4e4e4"
     id="path46" />
  <path
     d="m 62.02863,0 a 5.00588,5.00588 0 0 0 -5,5 v 55.583 a 5.00589,5.00589 0 0 0 5,5 h 266.12989 a 5.00589,5.00589 0 0 0 5,-5 V 5 a 5.00588,5.00588 0 0 0 -5,-5 z"
     fill="#e6e6e6"
     id="path48" />
  <path
     d="m 63.82652,3.89892 a 2.90239,2.90239 0 0 0 -2.89947,2.89893 v 51.98731 a 2.90245,2.90245 0 0 0 2.89941,2.89892 h 262.5342 a 2.9016,2.9016 0 0 0 2.89844,-2.89892 V 6.79785 a 2.9016,2.9016 0 0 0 -2.89844,-2.89893 z"
     fill="#ffffff"
     id="path50" />
  <path
     d="m 309.87702,47.42837 a 4.71032,4.71032 0 0 0 0.0127,-9.42063 c -0.004,0 -0.008,0 -0.0127,0 H 87.81946 a 4.71032,4.71032 0 0 0 0,9.42063 z"
     fill="#e6e6e6"
     id="path52" />
  <path
     d="m 183.37146,26.96454 a 4.71032,4.71032 0 1 0 0,-9.42063 h -95.552 a 4.71032,4.71032 0 1 0 0,9.42063 z"
     fill="#e4e4e4"
     id="path54" />
</svg>
