<svg id="Layer_3" data-name="Layer 3" xmlns="http://www.w3.org/2000/svg" viewBox="0 0 24 24"><rect width="24" height="24" fill="none"/><path d="M12,12v4.5" fill="none" stroke="#323232" stroke-linecap="round" stroke-linejoin="round" stroke-width="1.5"/><path d="M20.5,15.74722V8.25278a2,2,0,0,0-1-1.732L13,2.768a2,2,0,0,0-2,0L4.5,6.52073a2,2,0,0,0-1,1.732v7.49444a2,2,0,0,0,1,1.732L11,21.23205a2,2,0,0,0,2,0l6.5-3.75278A2,2,0,0,0,20.5,15.74722Z" fill="none" stroke="#323232" stroke-linecap="round" stroke-linejoin="round" stroke-width="1.5"/><path d="M12,12l4-2.5" fill="none" stroke="#323232" stroke-linecap="round" stroke-linejoin="round" stroke-width="1.5"/><path d="M12,12,8,9.5" fill="none" stroke="#323232" stroke-linecap="round" stroke-linejoin="round" stroke-width="1.5"/></svg>