<?xml version="1.0" encoding="UTF-8"?><svg version="1.1" viewBox="0 0 24 24" xmlns="http://www.w3.org/2000/svg" xmlns:xlink="http://www.w3.org/1999/xlink"><g stroke-linecap="round" stroke-width="1.5" stroke="#323232" fill="none" stroke-linejoin="round"><path d="M11.997 17.5c-.275 0-.5.225-.497.5 0 .275.225.5.5.5 .275 0 .5-.225.5-.5 0-.275-.225-.5-.503-.5"></path><path d="M11.997 11.5c-.275 0-.5.225-.497.5 0 .275.225.5.5.5 .275 0 .5-.225.5-.5 0-.275-.225-.5-.503-.5"></path><path d="M11.997 5.5c-.275 0-.5.225-.497.5 0 .275.225.5.5.5 .275 0 .5-.225.5-.5 0-.275-.225-.5-.503-.5"></path></g><path fill="none" d="M0 0h24v24h-24v-24Z"></path></svg>