<?xml version="1.0" encoding="UTF-8"?><svg version="1.1" viewBox="0 0 24 24" xmlns="http://www.w3.org/2000/svg" xmlns:xlink="http://www.w3.org/1999/xlink"><path d="M11.082 8.951l-3.81375e-07 4.30411e-08c-4.886.551422-8.57944 4.68298-8.582 9.6v.612l-4.85952e-07 5.85404e-07c2.12349-2.55807 5.25786-4.06171 8.582-4.117v3.227l-3.412e-08-.000288588c1.01906e-07.674892.547108 1.222 1.222 1.222 .274589-4.14618e-08.541176-.0924818.756773-.262532l7.99-6.309 1.21866e-08-9.6041e-09c.511416-.403041.599271-1.14435.196229-1.65577 -.0574569-.0729066-.123323-.138773-.196229-.196229l-7.99-6.309 -3.33996e-09-2.63565e-09c-.529801-.41808-1.29821-.327512-1.71629.202289 -.170102.215557-.262646.482122-.262711.756711Z" stroke-linecap="round" stroke-width="1.5" stroke="#323232" fill="none" stroke-linejoin="round"></path><path fill="none" d="M0 24v-24h24v24Z"></path></svg>